<svg xmlns="http://www.w3.org/2000/svg" xmlns:xlink="http://www.w3.org/1999/xlink" x="0px" y="0px" viewBox="0 0 1000 1000" xml:space="preserve"><metadata> Svg Vector Icons : http://www.onlinewebfonts.com/icon </metadata><g><g transform="translate(0.000000,511.000000) scale(0.100000,-0.100000)"><path d="M5187.7,4054.8c-157.1-27.5-341.7-96.2-463.4-176.7c-94.3-60.9-2319-2159.9-4149.1-3915.4C353.4-251.3,320-292.6,247.4-441.8c-117.8-241.5-149.2-379-147.3-648c0-280.8,49.1-481.1,182.6-756c231.7-479.1,589.1-881.7,1060.3-1197.8c410.4-272.9,742.2-398.6,1109.4-416.3c375-17.7,620.5,41.3,1246.9,302.4c543.9,225.8,703,267,1030.9,269c206.2,0,284.7-7.9,408.4-43.2c345.6-98.2,634.3-306.3,826.7-595c84.4-123.7,131.6-174.8,166.9-174.8c15.7,0,70.7,45.2,121.7,100.1l94.3,102.1l196.4-180.6c200.3-180.6,249.4-204.2,304.4-147.3c58.9,57,33.4,100.2-174.8,292.6L6468-3344l82.5,96.2l80.5,94.3l202.2-184.6c111.9-102.1,214-186.5,225.8-186.5c53,0,96.2,43.2,96.2,96.2c0,47.1-35.3,90.3-196.4,237.6c-214,198.3-210.1,184.6-100.1,312.2l58.9,66.8l163-153.2c217.9-202.2,241.5-217.9,300.4-190.5c35.3,15.7,49.1,37.3,49.1,78.6c0,47.1-33.4,88.4-186.5,227.8c-102.1,94.3-186.5,178.7-186.5,188.5c0,21.6,123.7,174.7,143.3,174.7c9.8,2,98.2-72.6,196.4-164.9c182.6-168.9,247.4-200.3,304.4-143.3c53,53,21.6,106-174.7,290.6L7330-2317l80.5,94.3l82.5,92.3l188.5-176.7c111.9-104.1,206.2-176.7,229.7-176.7c55,0,88.4,37.3,88.4,98.2c0,39.3-41.2,88.4-184.6,216c-102.1,92.3-186.5,176.7-186.5,186.5c-2,11.8,31.4,58.9,72.7,106l74.6,88.4l182.6-170.8c180.6-168.9,239.5-200.3,292.6-147.3c41.2,41.2,27.5,127.6-27.5,170.8c-27.5,21.6-111.9,98.2-186.5,168.9l-137.5,127.6l74.6,88.4c39.3,49.1,80.5,88.4,88.4,88.4c9.8,0,96.2-74.6,194.4-166.9c98.2-92.3,194.4-166.9,214-166.9c47.1,0,98.2,51,98.2,98.2c0,33.4-274.9,320.1-345.6,359.3c-43.2,23.6-31.4,55,49.1,147.3l76.6,82.5l153.2-139.4c190.5-172.8,229.7-198.3,271-182.6c43.2,15.7,74.6,80.5,62.8,121.8c-5.9,17.7-90.3,104.1-186.5,190.5C8457.1-948.4,8463-968,8574.9-834.5l55,64.8l62.8-57c35.3-31.4,111.9-104.1,172.8-161c90.3-84.5,121.7-104.1,166.9-98.2c41.2,3.9,60.9,21.6,76.6,62.8c19.6,55,11.8,62.9-165,229.7l-184.6,172.8l72.7,88.4c41.2,49.1,78.5,90.3,84.4,90.3c5.9,0,82.5-66.8,172.8-147.3c88.4-80.5,178.7-147.3,200.3-147.3c51,0,84.4,37.3,84.4,98.2c0,41.2-37.3,86.4-166.9,204.2l-166.9,153.2l82.5,98.2l82.5,98.2l137.5-149.2c141.4-153.2,206.2-182.6,263.1-125.7c47.1,47.1,21.6,102.1-125.7,263.1l-149.2,163l74.6,90.3c41.3,49.1,76.6,88.4,78.5,88.4c2,0,64.8-70.7,137.5-157.1c119.8-139.4,143.4-157.1,194.4-153.2c43.2,3.9,62.8,19.6,76.6,56.9c19.6,58.9,13.7,66.8-180.7,288.7l-104.1,119.8l56.9,64.8c82.5,94.2,84.4,111.9,15.7,241.5C9362.3,1315.6,8567,1394.2,7601,909.2c-106-53-243.5-117.8-304.4-145.3l-111.9-47.1l235.6,229.7c337.7,331.8,422.2,508.6,422.2,877.7c0,608.7-314.2,1205.7-869.9,1653.3C6420.8,3919.3,5725.7,4145.1,5187.7,4054.8z M5967.3,3811.3c752-223.8,1386.3-818.8,1612.1-1504.1c49.1-151.2,55-194.4,55-451.6c2-267.1-2-290.6-49.1-392.7c-27.5-58.9-80.5-143.3-117.8-186.5c-51.1-60.9-3436.3-3287.1-3675.8-3505l-55-47.1l13.8,108c15.7,129.6-17.7,402.5-72.7,606.8C3504.9-922.9,2882.5-278.8,2159.9,9.8c-296.5,119.8-502.7,161-801.2,164.9c-149.2,0-271,3.9-271,3.9c0,7.9,3536.4,3369.5,3630.7,3454c214,188.5,414.3,247.4,797.2,237.6C5743.4,3864.4,5822,3854.5,5967.3,3811.3z M9038.3,993.6c66.8-19.6,164.9-66.8,219.9-102.1c94.3-58.9,253.3-241.5,253.3-288.6c0-17.7-274.9-351.5-1197.8-1447.2c-135.5-161-661.7-789.4-1166.4-1394.2c-506.6-604.8-940.5-1119.2-964.1-1144.8l-43.2-45.2L6036-3300.8c-249.4,306.3-618.5,516.4-1030.9,583.2c-198.3,31.4-583.2,11.8-775.6-37.3c-82.5-21.6-347.6-119.8-589.1-218c-651.9-261.2-734.4-282.8-1080-284.7c-392.7-2-565.5,47.1-954.3,278.8C1347-2825.6,1180.1-2696,970-2483.9c-406.5,406.5-659.8,907.2-683.3,1349C269-765.8,353.4-522.3,575.3-310.2C732.4-161,842.3-100.1,1040.6-49.1C1749.5,133.5,2741.1-331.8,3237.9-1080c221.9-333.8,312.2-614.6,314.2-983.8c0-233.7,0-237.6-74.6-384.9c-165-333.8-467.3-506.6-887.5-506.6c-247.4,0-459.5,57-746.2,196.4c-469.3,229.7-816.9,571.4-1032.9,1011.2C559.6-1235.1,616.5-759.9,956.2-526.2c290.6,198.3,797.2,192.4,1225.3-13.8c589.1-286.7,1032.8-920.9,1003.4-1437.4c-15.7-265.1-139.4-457.5-369.2-569.4c-119.8-58.9-463.4-64.8-628.3-9.8c-310.2,104.1-681.4,347.5-862,567.5c-56.9,68.7-137.5,194.4-178.7,280.8c-192.4,392.7-149.2,728.5,113.9,885.6c343.6,206.2,838.5,88.4,1231.2-294.5c375-367.2,437.9-901.3,125.7-1064.3c-174.8-90.3-380.9-72.6-642.1,53c-516.4,249.4-740.3,830.6-388.8,1013.2c90.3,47.1,290.6,25.5,430-43.2c276.9-137.4,487-481.1,380.9-626.4c-56.9-78.6-276.9-70.7-400.6,13.8c-80.5,53-182.6,200.3-182.6,263.1c0,37.3,9.8,45.2,55,45.2c74.6,0,139.4-49.1,127.6-96.2c-21.6-84.4,70.7-151.2,145.3-104.1c49.1,31.4,66.8,119.8,37.3,190.5c-33.4,78.6-166.9,180.7-257.2,198.3c-147.3,27.5-284.7-100.1-284.7-263.1c0-314.2,496.8-600.9,795.3-455.6c115.8,56.9,157.1,135.5,157.1,306.3c-2,121.7-11.8,161-72.7,284.7c-117.8,237.6-312.2,398.6-583.2,477.1c-498.7,147.3-818.8-235.6-626.4-748.1c127.6-341.7,412.4-597,797.2-712.8c115.9-35.3,176.7-43.2,314.2-35.3c341.7,17.7,538,204.2,567.5,540c41.2,500.7-359.3,1054.4-915,1264.5c-212.1,80.5-386.8,104.1-559.6,80.5c-400.6-58.9-630.3-296.5-653.9-677.4c-35.3-553.7,329.9-1074.1,987.7-1404c316.1-159.1,549.8-206.2,811-161c469.3,78.6,765.8,461.4,718.7,932.7C3334.1-1419.6,3063.1-946.4,2690-646C2102.9-172.8,1260.6-68.7,793.2-412.3c-239.6-174.8-359.3-506.6-314.2-864c82.5-657.8,591-1319.5,1266.5-1651.4c335.8-163,469.3-194.4,834.5-194.4c280.8,0,316.1,3.9,447.7,53c80.5,29.5,190.5,80.5,247.4,115.8c60.9,35.4,830.6,752.1,1837.9,1708.3C6067.4-337.7,6860.7,402.6,6874.4,402.6c56.9,0,424.1,149.2,771.7,314.2c528.2,249.4,732.4,310.2,1074.1,312.2C8863.5,1030.9,8951.9,1021.1,9038.3,993.6z"></path></g></g></svg>